<svg 
     class="MuiSvgIcon-root"
     version="1.1"
	 id="Capa_1" focusable="false" xmlns:cc="http://creativecommons.org/ns#" xmlns:dc="http://purl.org/dc/elements/1.1/" xmlns:rdf="http://www.w3.org/1999/02/22-rdf-syntax-ns#"
	 xmlns="http://www.w3.org/2000/svg" xmlns:xlink="http://www.w3.org/1999/xlink" x="0px" y="0px" viewBox="0 0 24 24"
	 style="enable-background:new 0 0 24 24;" xml:space="preserve">
<style type="text/css">
	.st0{fill:#F7931A;}
	.st1{fill:#FFFFFF;}
</style>
<g transform="translate(0.00630876,-0.00301984)">
	<path class="st0" d="M23.6346,14.9047c-1.6027,6.4283-8.1134,10.3404-14.5425,8.7374C2.6657,22.0394-1.2465,15.5283,0.3569,9.1004
		c1.6019-6.429,8.1127-10.3416,14.5398-8.7389C21.3254,1.9641,25.2372,8.476,23.6346,14.9047z"/>
	<path class="st1" d="M17.2862,10.2924c0.2389-1.5967-0.9768-2.455-2.6391-3.0276l0.5392-2.1629l-1.3166-0.3281l-0.525,2.1059
		c-0.3461-0.0862-0.7016-0.1676-1.0548-0.2482l0.5287-2.1198l-1.3158-0.3281l-0.5396,2.1621
		c-0.2865-0.0652-0.5677-0.1297-0.8407-0.1976l0.0015-0.0067L8.3084,5.6881L7.9582,7.0942c0,0,0.9768,0.2239,0.9562,0.2377
		c0.5332,0.1331,0.6296,0.486,0.6135,0.7657l-0.6142,2.464c0.0367,0.0094,0.0844,0.0229,0.1369,0.0439
		c-0.0439-0.0109-0.0907-0.0229-0.1391-0.0345l-0.861,3.4517c-0.0652,0.162-0.2306,0.405-0.6033,0.3127
		c0.0131,0.0191-0.9569-0.2389-0.9569-0.2389l-0.6536,1.507l1.7133,0.4271c0.3187,0.0799,0.6311,0.1635,0.9386,0.2422
		l-0.5448,2.1876l1.3151,0.3281l0.5396-2.1644c0.3592,0.0975,0.708,0.1875,1.0492,0.2722l-0.5377,2.1543l1.3166,0.3281
		l0.5448-2.1835c2.245,0.4249,3.9332,0.2535,4.6437-1.777c0.5726-1.6349-0.0285-2.578-1.2097-3.193
		C16.4653,12.0271,17.1133,11.4613,17.2862,10.2924z M14.2781,14.5106c-0.4069,1.6349-3.1596,0.7511-4.052,0.5295l0.723-2.8982
		C11.8414,12.3646,14.7033,12.8056,14.2781,14.5106z M14.6853,10.2688c-0.3712,1.4872-2.6624,0.7316-3.4056,0.5463l0.6555-2.6286
		C12.6784,8.3718,15.0719,8.7175,14.6853,10.2688z"/>
</g>
</svg>
